<svg width="122" height="149" viewBox="0 0 122 149" fill="none" xmlns="http://www.w3.org/2000/svg"><path d="M.642 140.33h3.275c1.605 0 2.504 1.027 2.504 2.183 0 .771-.45 1.349-1.22 1.542 1.156.257 1.734 1.027 1.734 2.119 0 1.542-1.092 2.633-2.89 2.633H.642v-8.477zm3.082 3.147c.578 0 .963-.321.963-.771 0-.514-.32-.771-.834-.771H2.376v1.606h1.348v-.064zm.321 3.853c.707 0 1.156-.449 1.156-1.156 0-.706-.45-1.156-1.284-1.156H2.376v2.376h1.67v-.064zM8.283 140.33h1.734v7h3.853v1.542H8.283v-8.542zM15.346 140.33h1.734v8.542h-1.734v-8.542zM18.236 147.394l1.412-.835c.257.514.514.9 1.156.9.578 0 .963-.257.963-1.092v-5.973h1.734v5.973c0 1.798-1.091 2.633-2.633 2.633-1.412 0-2.247-.706-2.632-1.606zM25.17 140.33h5.523v1.541h-3.725v2.826h3.404v1.541h-3.404v2.569h-1.733v-8.477h-.064zM34.288 140.33h1.863l1.476 3.275c.321.707.642 1.927.642 1.927s.322-1.22.643-1.927l1.412-3.275h1.734l-3.724 8.606h-.193l-3.853-8.606zM43.214 140.33h5.65v1.541h-3.917v2.698h3.403v1.477h-3.403v1.22h4.046v1.541H43.15v-8.477h.064zM56.955 148.872H54.9l-1.413-2.184c-.192 0-.32.064-.513.064h-.578v2.12h-1.734v-8.542h2.376c2.376 0 3.788 1.156 3.788 3.211 0 1.349-.578 2.184-1.67 2.633l1.799 2.698zm-3.981-3.661c1.412 0 2.054-.45 2.054-1.67s-.642-1.67-2.054-1.67h-.578v3.34h.578zM57.533 140.33h1.862l1.22 3.404c.192.578.45 1.541.45 1.541s.256-.963.513-1.541l1.67-3.468h.192l1.67 3.468c.256.578.513 1.541.513 1.541s.257-.963.45-1.541l1.22-3.404h1.733l-3.082 8.606h-.192l-1.927-4.111c-.257-.449-.45-1.284-.45-1.284s-.256.771-.513 1.284l-1.99 4.111h-.193l-3.146-8.606zM69.283 144.633c0-2.505 1.927-4.367 4.43-4.367 2.505 0 4.431 1.862 4.431 4.367 0 2.504-1.926 4.367-4.43 4.367-2.504 0-4.43-1.863-4.43-4.367zm7.063 0c0-1.606-1.027-2.826-2.632-2.826-1.606 0-2.633 1.22-2.633 2.826 0 1.605 1.027 2.826 2.633 2.826 1.605 0 2.632-1.221 2.632-2.826zM82.19 144.954c-.45-.385-1.028-1.156-1.028-1.156s.128.963.128 1.541v3.597h-1.669v-8.606h.193l4.302 4.046c.385.385 1.027 1.156 1.027 1.156s-.128-.963-.128-1.541v-3.597h1.67V149h-.193l-4.303-4.046zM88.418 140.33h2.632c2.633 0 4.495 1.734 4.495 4.239 0 2.504-1.862 4.238-4.495 4.238h-2.632v-8.477zm2.568 7c1.862 0 2.761-1.156 2.761-2.697 0-1.606-.834-2.698-2.76-2.698h-.771v5.459h.77v-.064zM97.022 140.33h5.651v1.541h-3.917v2.698h3.403v1.477h-3.403v1.22h4.045v1.541h-5.843v-8.477h.064zM110.763 148.872h-2.055l-1.412-2.184c-.193 0-.321.064-.514.064h-.578v2.12h-1.733v-8.542h2.375c2.376 0 3.789 1.156 3.789 3.211 0 1.349-.578 2.184-1.67 2.633l1.798 2.698zm-3.981-3.661c1.413 0 2.055-.45 2.055-1.67s-.642-1.67-2.055-1.67h-.578v3.34h.578zM112.176 140.33h2.632c2.633 0 4.495 1.734 4.495 4.239 0 2.504-1.862 4.238-4.495 4.238h-2.632v-8.477zm2.504 7c1.862 0 2.761-1.156 2.761-2.697 0-1.606-.835-2.698-2.761-2.698h-.771v5.459h.771v-.064zM119.881 147.908c0-.642.514-1.027 1.092-1.027.578 0 1.027.449 1.027 1.027 0 .642-.514 1.092-1.027 1.092-.578-.064-1.092-.45-1.092-1.092zM112.566 73.342l-6.418-6.4L103.196 64l9.37-9.344c6.225-6.272 9.37-14.464 9.37-22.656 0-8.191-3.145-16.383-9.37-22.655A32.276 32.276 0 0 0 89.847 0 32.277 32.277 0 0 0 67.13 9.344l-6.803 6.848V0H0v96.318c0 8.128 3.08 16.191 9.306 22.399 7.123 7.104 16.814 10.112 26.12 9.088 1.604-.192 3.144-.448 4.684-.896 5.199-1.408 10.076-4.096 14.184-8.192a31.904 31.904 0 0 0 5.519-7.424l.577.576.385.384 6.418 6.4c6.29 6.272 14.504 9.344 22.719 9.344 8.214 0 16.429-3.136 22.718-9.344 6.29-6.272 9.37-14.463 9.37-22.655-.064-8.192-3.209-16.384-9.434-22.656z" fill="#000"/><path fill-rule="evenodd" clip-rule="evenodd" d="M49.465 93.523l7.83-18.171h.128l7.83 18.17h-2.992l-1.018-2.477h-7.958l-1.019 2.478h-2.8zm7.958-12.072l-2.992 7.053h5.92l-2.928-7.053zM35.14 75.733h-3.055l-7.13 9.911v-9.91h-2.802v17.725h2.801v-6.29l6.685 6.29h3.947l-7.894-7.37 7.448-10.356zm6.748 0h-2.8V93.46h7.448l1.082-2.478h-5.73V75.733zm38.77 6.798c0-4.13-2.673-6.798-7.575-6.798H68.5v17.79h2.801v-4.257h1.783c.445 0 .89 0 1.273-.064l3.056 4.32h3.31l-3.629-5.019c2.356-1.143 3.565-3.24 3.565-5.972zm-7.703 4.32h-1.655v-8.64h1.655c3.438 0 4.839 1.652 4.839 4.32 0 2.669-1.4 4.32-4.839 4.32zm17.89-11.5h.127l7.83 18.172h-2.992l-1.019-2.478h-7.957l-1.019 2.478h-2.801l7.83-18.171zm.063 6.1l-2.992 7.053h5.92L90.91 81.45z" fill="#fff"/></svg>